<?xml version="1.0" encoding="UTF-8" standalone="no"?>
<!DOCTYPE svg PUBLIC "-//W3C//DTD SVG 1.1//EN"
 "http://www.w3.org/Graphics/SVG/1.1/DTD/svg11.dtd">
<!-- Generated by graphviz version 2.38.0 (20140413.2041)
 -->
<!-- Title: Tree Pages: 1 -->
<svg width="741pt" height="552pt"
 viewBox="0.00 0.00 741.00 552.00" xmlns="http://www.w3.org/2000/svg" xmlns:xlink="http://www.w3.org/1999/xlink">
<g id="graph0" class="graph" transform="scale(1 1) rotate(0) translate(4 548)">
<title>Tree</title>
<polygon fill="white" stroke="none" points="-4,4 -4,-548 737,-548 737,4 -4,4"/>
<!-- 0 -->
<g id="node1" class="node"><title>0</title>
<path fill="#eff7fd" stroke="black" d="M443,-544C443,-544 286,-544 286,-544 280,-544 274,-538 274,-532 274,-532 274,-473 274,-473 274,-467 280,-461 286,-461 286,-461 443,-461 443,-461 449,-461 455,-467 455,-473 455,-473 455,-532 455,-532 455,-538 449,-544 443,-544"/>
<text text-anchor="start" x="282" y="-528.8" font-family="Helvetica,sans-Serif" font-size="14.00">physician&#45;fee&#45;freeze ≤ 0.5</text>
<text text-anchor="start" x="327" y="-513.8" font-family="Helvetica,sans-Serif" font-size="14.00">gini = 0.499</text>
<text text-anchor="start" x="321" y="-498.8" font-family="Helvetica,sans-Serif" font-size="14.00">samples = 69</text>
<text text-anchor="start" x="316" y="-483.8" font-family="Helvetica,sans-Serif" font-size="14.00">value = [33, 36]</text>
<text text-anchor="start" x="335.5" y="-468.8" font-family="Helvetica,sans-Serif" font-size="14.00">class = 1</text>
</g>
<!-- 1 -->
<g id="node2" class="node"><title>1</title>
<path fill="#e6853f" stroke="black" d="M351,-425C351,-425 112,-425 112,-425 106,-425 100,-419 100,-413 100,-413 100,-354 100,-354 100,-348 106,-342 112,-342 112,-342 351,-342 351,-342 357,-342 363,-348 363,-354 363,-354 363,-413 363,-413 363,-419 357,-425 351,-425"/>
<text text-anchor="start" x="108" y="-409.8" font-family="Helvetica,sans-Serif" font-size="14.00">adoption&#45;of&#45;the&#45;budget&#45;resolution ≤ 0.5</text>
<text text-anchor="start" x="194" y="-394.8" font-family="Helvetica,sans-Serif" font-size="14.00">gini = 0.059</text>
<text text-anchor="start" x="188" y="-379.8" font-family="Helvetica,sans-Serif" font-size="14.00">samples = 33</text>
<text text-anchor="start" x="187" y="-364.8" font-family="Helvetica,sans-Serif" font-size="14.00">value = [32, 1]</text>
<text text-anchor="start" x="202.5" y="-349.8" font-family="Helvetica,sans-Serif" font-size="14.00">class = 0</text>
</g>
<!-- 0&#45;&gt;1 -->
<g id="edge1" class="edge"><title>0&#45;&gt;1</title>
<path fill="none" stroke="black" d="M318.356,-460.907C307.628,-451.469 296.116,-441.343 285.097,-431.649"/>
<polygon fill="black" stroke="black" points="287.382,-428.998 277.562,-425.021 282.759,-434.254 287.382,-428.998"/>
<text text-anchor="middle" x="279.159" y="-446.27" font-family="Helvetica,sans-Serif" font-size="14.00">True</text>
</g>
<!-- 8 -->
<g id="node9" class="node"><title>8</title>
<path fill="#3fa0e6" stroke="black" d="M602,-425C602,-425 393,-425 393,-425 387,-425 381,-419 381,-413 381,-413 381,-354 381,-354 381,-348 387,-342 393,-342 393,-342 602,-342 602,-342 608,-342 614,-348 614,-354 614,-354 614,-413 614,-413 614,-419 608,-425 602,-425"/>
<text text-anchor="start" x="389" y="-409.8" font-family="Helvetica,sans-Serif" font-size="14.00">synfuels&#45;corporation&#45;cutback ≤ 0.5</text>
<text text-anchor="start" x="460" y="-394.8" font-family="Helvetica,sans-Serif" font-size="14.00">gini = 0.054</text>
<text text-anchor="start" x="454" y="-379.8" font-family="Helvetica,sans-Serif" font-size="14.00">samples = 36</text>
<text text-anchor="start" x="453" y="-364.8" font-family="Helvetica,sans-Serif" font-size="14.00">value = [1, 35]</text>
<text text-anchor="start" x="468.5" y="-349.8" font-family="Helvetica,sans-Serif" font-size="14.00">class = 1</text>
</g>
<!-- 0&#45;&gt;8 -->
<g id="edge8" class="edge"><title>0&#45;&gt;8</title>
<path fill="none" stroke="black" d="M410.644,-460.907C421.372,-451.469 432.884,-441.343 443.903,-431.649"/>
<polygon fill="black" stroke="black" points="446.241,-434.254 451.438,-425.021 441.618,-428.998 446.241,-434.254"/>
<text text-anchor="middle" x="449.841" y="-446.27" font-family="Helvetica,sans-Serif" font-size="14.00">False</text>
</g>
<!-- 2 -->
<g id="node3" class="node"><title>2</title>
<path fill="#eeab7b" stroke="black" d="M184.5,-306C184.5,-306 26.5,-306 26.5,-306 20.5,-306 14.5,-300 14.5,-294 14.5,-294 14.5,-235 14.5,-235 14.5,-229 20.5,-223 26.5,-223 26.5,-223 184.5,-223 184.5,-223 190.5,-223 196.5,-229 196.5,-235 196.5,-235 196.5,-294 196.5,-294 196.5,-300 190.5,-306 184.5,-306"/>
<text text-anchor="start" x="22.5" y="-290.8" font-family="Helvetica,sans-Serif" font-size="14.00">anti&#45;satellite&#45;test&#45;ban ≤ 0.5</text>
<text text-anchor="start" x="68" y="-275.8" font-family="Helvetica,sans-Serif" font-size="14.00">gini = 0.375</text>
<text text-anchor="start" x="66" y="-260.8" font-family="Helvetica,sans-Serif" font-size="14.00">samples = 4</text>
<text text-anchor="start" x="65" y="-245.8" font-family="Helvetica,sans-Serif" font-size="14.00">value = [3, 1]</text>
<text text-anchor="start" x="76.5" y="-230.8" font-family="Helvetica,sans-Serif" font-size="14.00">class = 0</text>
</g>
<!-- 1&#45;&gt;2 -->
<g id="edge2" class="edge"><title>1&#45;&gt;2</title>
<path fill="none" stroke="black" d="M187.785,-341.907C177.719,-332.56 166.925,-322.538 156.577,-312.929"/>
<polygon fill="black" stroke="black" points="158.847,-310.261 149.138,-306.021 154.084,-315.39 158.847,-310.261"/>
</g>
<!-- 7 -->
<g id="node8" class="node"><title>7</title>
<path fill="#e58139" stroke="black" d="M308,-298.5C308,-298.5 227,-298.5 227,-298.5 221,-298.5 215,-292.5 215,-286.5 215,-286.5 215,-242.5 215,-242.5 215,-236.5 221,-230.5 227,-230.5 227,-230.5 308,-230.5 308,-230.5 314,-230.5 320,-236.5 320,-242.5 320,-242.5 320,-286.5 320,-286.5 320,-292.5 314,-298.5 308,-298.5"/>
<text text-anchor="start" x="238.5" y="-283.3" font-family="Helvetica,sans-Serif" font-size="14.00">gini = 0.0</text>
<text text-anchor="start" x="224" y="-268.3" font-family="Helvetica,sans-Serif" font-size="14.00">samples = 29</text>
<text text-anchor="start" x="223" y="-253.3" font-family="Helvetica,sans-Serif" font-size="14.00">value = [29, 0]</text>
<text text-anchor="start" x="238.5" y="-238.3" font-family="Helvetica,sans-Serif" font-size="14.00">class = 0</text>
</g>
<!-- 1&#45;&gt;7 -->
<g id="edge7" class="edge"><title>1&#45;&gt;7</title>
<path fill="none" stroke="black" d="M243.99,-341.907C247.317,-331.094 250.923,-319.376 254.287,-308.441"/>
<polygon fill="black" stroke="black" points="257.699,-309.254 257.295,-298.667 251.009,-307.195 257.699,-309.254"/>
</g>
<!-- 3 -->
<g id="node4" class="node"><title>3</title>
<path fill="#e58139" stroke="black" d="M85,-179.5C85,-179.5 12,-179.5 12,-179.5 6,-179.5 0,-173.5 0,-167.5 0,-167.5 0,-123.5 0,-123.5 0,-117.5 6,-111.5 12,-111.5 12,-111.5 85,-111.5 85,-111.5 91,-111.5 97,-117.5 97,-123.5 97,-123.5 97,-167.5 97,-167.5 97,-173.5 91,-179.5 85,-179.5"/>
<text text-anchor="start" x="19.5" y="-164.3" font-family="Helvetica,sans-Serif" font-size="14.00">gini = 0.0</text>
<text text-anchor="start" x="9" y="-149.3" font-family="Helvetica,sans-Serif" font-size="14.00">samples = 2</text>
<text text-anchor="start" x="8" y="-134.3" font-family="Helvetica,sans-Serif" font-size="14.00">value = [2, 0]</text>
<text text-anchor="start" x="19.5" y="-119.3" font-family="Helvetica,sans-Serif" font-size="14.00">class = 0</text>
</g>
<!-- 2&#45;&gt;3 -->
<g id="edge3" class="edge"><title>2&#45;&gt;3</title>
<path fill="none" stroke="black" d="M85.7241,-222.907C80.3484,-211.873 74.5143,-199.898 69.0944,-188.773"/>
<polygon fill="black" stroke="black" points="72.1845,-187.124 64.6583,-179.667 65.8915,-190.19 72.1845,-187.124"/>
</g>
<!-- 4 -->
<g id="node5" class="node"><title>4</title>
<path fill="#ffffff" stroke="black" d="M200,-187C200,-187 127,-187 127,-187 121,-187 115,-181 115,-175 115,-175 115,-116 115,-116 115,-110 121,-104 127,-104 127,-104 200,-104 200,-104 206,-104 212,-110 212,-116 212,-116 212,-175 212,-175 212,-181 206,-187 200,-187"/>
<text text-anchor="start" x="128" y="-171.8" font-family="Helvetica,sans-Serif" font-size="14.00">crime ≤ 0.5</text>
<text text-anchor="start" x="134.5" y="-156.8" font-family="Helvetica,sans-Serif" font-size="14.00">gini = 0.5</text>
<text text-anchor="start" x="124" y="-141.8" font-family="Helvetica,sans-Serif" font-size="14.00">samples = 2</text>
<text text-anchor="start" x="123" y="-126.8" font-family="Helvetica,sans-Serif" font-size="14.00">value = [1, 1]</text>
<text text-anchor="start" x="134.5" y="-111.8" font-family="Helvetica,sans-Serif" font-size="14.00">class = 0</text>
</g>
<!-- 2&#45;&gt;4 -->
<g id="edge4" class="edge"><title>2&#45;&gt;4</title>
<path fill="none" stroke="black" d="M125.623,-222.907C129.897,-214.286 134.455,-205.09 138.875,-196.175"/>
<polygon fill="black" stroke="black" points="142.107,-197.535 143.413,-187.021 135.835,-194.426 142.107,-197.535"/>
</g>
<!-- 5 -->
<g id="node6" class="node"><title>5</title>
<path fill="#e58139" stroke="black" d="M142,-68C142,-68 69,-68 69,-68 63,-68 57,-62 57,-56 57,-56 57,-12 57,-12 57,-6 63,-0 69,-0 69,-0 142,-0 142,-0 148,-0 154,-6 154,-12 154,-12 154,-56 154,-56 154,-62 148,-68 142,-68"/>
<text text-anchor="start" x="76.5" y="-52.8" font-family="Helvetica,sans-Serif" font-size="14.00">gini = 0.0</text>
<text text-anchor="start" x="66" y="-37.8" font-family="Helvetica,sans-Serif" font-size="14.00">samples = 1</text>
<text text-anchor="start" x="65" y="-22.8" font-family="Helvetica,sans-Serif" font-size="14.00">value = [1, 0]</text>
<text text-anchor="start" x="76.5" y="-7.8" font-family="Helvetica,sans-Serif" font-size="14.00">class = 0</text>
</g>
<!-- 4&#45;&gt;5 -->
<g id="edge5" class="edge"><title>4&#45;&gt;5</title>
<path fill="none" stroke="black" d="M141.903,-103.726C137.313,-95.0615 132.459,-85.8962 127.842,-77.1802"/>
<polygon fill="black" stroke="black" points="130.912,-75.4982 123.138,-68.2996 124.726,-78.7748 130.912,-75.4982"/>
</g>
<!-- 6 -->
<g id="node7" class="node"><title>6</title>
<path fill="#399de5" stroke="black" d="M257,-68C257,-68 184,-68 184,-68 178,-68 172,-62 172,-56 172,-56 172,-12 172,-12 172,-6 178,-0 184,-0 184,-0 257,-0 257,-0 263,-0 269,-6 269,-12 269,-12 269,-56 269,-56 269,-62 263,-68 257,-68"/>
<text text-anchor="start" x="191.5" y="-52.8" font-family="Helvetica,sans-Serif" font-size="14.00">gini = 0.0</text>
<text text-anchor="start" x="181" y="-37.8" font-family="Helvetica,sans-Serif" font-size="14.00">samples = 1</text>
<text text-anchor="start" x="180" y="-22.8" font-family="Helvetica,sans-Serif" font-size="14.00">value = [0, 1]</text>
<text text-anchor="start" x="191.5" y="-7.8" font-family="Helvetica,sans-Serif" font-size="14.00">class = 1</text>
</g>
<!-- 4&#45;&gt;6 -->
<g id="edge6" class="edge"><title>4&#45;&gt;6</title>
<path fill="none" stroke="black" d="M184.725,-103.726C189.235,-95.0615 194.006,-85.8962 198.543,-77.1802"/>
<polygon fill="black" stroke="black" points="201.653,-78.7859 203.166,-68.2996 195.444,-75.5537 201.653,-78.7859"/>
</g>
<!-- 9 -->
<g id="node10" class="node"><title>9</title>
<path fill="#399de5" stroke="black" d="M502,-298.5C502,-298.5 421,-298.5 421,-298.5 415,-298.5 409,-292.5 409,-286.5 409,-286.5 409,-242.5 409,-242.5 409,-236.5 415,-230.5 421,-230.5 421,-230.5 502,-230.5 502,-230.5 508,-230.5 514,-236.5 514,-242.5 514,-242.5 514,-286.5 514,-286.5 514,-292.5 508,-298.5 502,-298.5"/>
<text text-anchor="start" x="432.5" y="-283.3" font-family="Helvetica,sans-Serif" font-size="14.00">gini = 0.0</text>
<text text-anchor="start" x="418" y="-268.3" font-family="Helvetica,sans-Serif" font-size="14.00">samples = 33</text>
<text text-anchor="start" x="417" y="-253.3" font-family="Helvetica,sans-Serif" font-size="14.00">value = [0, 33]</text>
<text text-anchor="start" x="432.5" y="-238.3" font-family="Helvetica,sans-Serif" font-size="14.00">class = 1</text>
</g>
<!-- 8&#45;&gt;9 -->
<g id="edge9" class="edge"><title>8&#45;&gt;9</title>
<path fill="none" stroke="black" d="M485.01,-341.907C481.683,-331.094 478.077,-319.376 474.713,-308.441"/>
<polygon fill="black" stroke="black" points="477.991,-307.195 471.705,-298.667 471.301,-309.254 477.991,-307.195"/>
</g>
<!-- 10 -->
<g id="node11" class="node"><title>10</title>
<path fill="#9ccef2" stroke="black" d="M711,-306C711,-306 544,-306 544,-306 538,-306 532,-300 532,-294 532,-294 532,-235 532,-235 532,-229 538,-223 544,-223 544,-223 711,-223 711,-223 717,-223 723,-229 723,-235 723,-235 723,-294 723,-294 723,-300 717,-306 711,-306"/>
<text text-anchor="start" x="540" y="-290.8" font-family="Helvetica,sans-Serif" font-size="14.00">superfund&#45;right&#45;to&#45;sue ≤ 0.5</text>
<text text-anchor="start" x="590" y="-275.8" font-family="Helvetica,sans-Serif" font-size="14.00">gini = 0.444</text>
<text text-anchor="start" x="588" y="-260.8" font-family="Helvetica,sans-Serif" font-size="14.00">samples = 3</text>
<text text-anchor="start" x="587" y="-245.8" font-family="Helvetica,sans-Serif" font-size="14.00">value = [1, 2]</text>
<text text-anchor="start" x="598.5" y="-230.8" font-family="Helvetica,sans-Serif" font-size="14.00">class = 1</text>
</g>
<!-- 8&#45;&gt;10 -->
<g id="edge10" class="edge"><title>8&#45;&gt;10</title>
<path fill="none" stroke="black" d="M542.603,-341.907C552.989,-332.56 564.125,-322.538 574.801,-312.929"/>
<polygon fill="black" stroke="black" points="577.385,-315.312 582.477,-306.021 572.703,-310.109 577.385,-315.312"/>
</g>
<!-- 11 -->
<g id="node12" class="node"><title>11</title>
<path fill="#e58139" stroke="black" d="M606,-179.5C606,-179.5 533,-179.5 533,-179.5 527,-179.5 521,-173.5 521,-167.5 521,-167.5 521,-123.5 521,-123.5 521,-117.5 527,-111.5 533,-111.5 533,-111.5 606,-111.5 606,-111.5 612,-111.5 618,-117.5 618,-123.5 618,-123.5 618,-167.5 618,-167.5 618,-173.5 612,-179.5 606,-179.5"/>
<text text-anchor="start" x="540.5" y="-164.3" font-family="Helvetica,sans-Serif" font-size="14.00">gini = 0.0</text>
<text text-anchor="start" x="530" y="-149.3" font-family="Helvetica,sans-Serif" font-size="14.00">samples = 1</text>
<text text-anchor="start" x="529" y="-134.3" font-family="Helvetica,sans-Serif" font-size="14.00">value = [1, 0]</text>
<text text-anchor="start" x="540.5" y="-119.3" font-family="Helvetica,sans-Serif" font-size="14.00">class = 0</text>
</g>
<!-- 10&#45;&gt;11 -->
<g id="edge11" class="edge"><title>10&#45;&gt;11</title>
<path fill="none" stroke="black" d="M607.377,-222.907C601.907,-211.873 595.971,-199.898 590.456,-188.773"/>
<polygon fill="black" stroke="black" points="593.519,-187.072 585.942,-179.667 587.247,-190.181 593.519,-187.072"/>
</g>
<!-- 12 -->
<g id="node13" class="node"><title>12</title>
<path fill="#399de5" stroke="black" d="M721,-179.5C721,-179.5 648,-179.5 648,-179.5 642,-179.5 636,-173.5 636,-167.5 636,-167.5 636,-123.5 636,-123.5 636,-117.5 642,-111.5 648,-111.5 648,-111.5 721,-111.5 721,-111.5 727,-111.5 733,-117.5 733,-123.5 733,-123.5 733,-167.5 733,-167.5 733,-173.5 727,-179.5 721,-179.5"/>
<text text-anchor="start" x="655.5" y="-164.3" font-family="Helvetica,sans-Serif" font-size="14.00">gini = 0.0</text>
<text text-anchor="start" x="645" y="-149.3" font-family="Helvetica,sans-Serif" font-size="14.00">samples = 2</text>
<text text-anchor="start" x="644" y="-134.3" font-family="Helvetica,sans-Serif" font-size="14.00">value = [0, 2]</text>
<text text-anchor="start" x="655.5" y="-119.3" font-family="Helvetica,sans-Serif" font-size="14.00">class = 1</text>
</g>
<!-- 10&#45;&gt;12 -->
<g id="edge12" class="edge"><title>10&#45;&gt;12</title>
<path fill="none" stroke="black" d="M647.276,-222.907C652.652,-211.873 658.486,-199.898 663.906,-188.773"/>
<polygon fill="black" stroke="black" points="667.108,-190.19 668.342,-179.667 660.816,-187.124 667.108,-190.19"/>
</g>
</g>
</svg>
